<?xml version="1.0" encoding="utf-8"?><svg width="78" height="60" viewBox="0 0 78 60" xmlns="http://www.w3.org/2000/svg" xmlns:xlink="http://www.w3.org/1999/xlink"><view id="calendar" viewBox="0 0 30 30"/><svg width="30" height="30" fill="none" viewBox="0 0 30 30" xmlns="http://www.w3.org/2000/svg"><path d="M27.656 2.784h-1.453v-.43A2.356 2.356 0 0023.86 0h-.032a2.356 2.356 0 00-2.344 2.353v.431H8.517v-.43A2.356 2.356 0 006.173 0h-.032a2.356 2.356 0 00-2.344 2.353v.431H2.344A2.356 2.356 0 000 5.138v22.504A2.357 2.357 0 002.344 30h25.312C28.946 30 30 28.94 30 27.647V5.142a2.357 2.357 0 00-2.344-2.358zm-5.24-.43c0-.779.628-1.412 1.406-1.412h.033c.773 0 1.406.633 1.406 1.411V6.54c0 .778-.633 1.411-1.406 1.411h-.033a1.408 1.408 0 01-1.406-1.41V2.352zm-17.682 0c0-.779.628-1.412 1.407-1.412h.032c.774 0 1.407.633 1.407 1.411V6.54c0 .778-.633 1.411-1.407 1.411h-.032a1.408 1.408 0 01-1.407-1.41V2.352zm22.922 25.762H2.344a.476.476 0 01-.469-.47V11.1h26.25v16.547a.476.476 0 01-.469.469z" fill="#42BCED"/></svg><view id="clock" viewBox="30 0 30 30"/><svg width="30" height="30" fill="none" viewBox="0 0 30 30" x="30" xmlns="http://www.w3.org/2000/svg"><path d="M15 0C6.717 0 0 6.717 0 15c0 8.283 6.717 15 15 15 8.283 0 15-6.717 15-15 0-8.283-6.717-15-15-15zm0 26.719C8.536 26.719 3.281 21.464 3.281 15 3.281 8.536 8.536 3.281 15 3.281c6.464 0 11.719 5.255 11.719 11.719 0 6.464-5.255 11.719-11.719 11.719z" fill="#42BCED"/><path d="M22.247 14.644h-6.549V6.956a1.172 1.172 0 00-2.344 0v9.867a1.172 1.172 0 001.594 1.093c.038 0 .07.009.108.009h7.195c.905 0 1.641-.736 1.641-1.64a1.65 1.65 0 00-1.645-1.641z" fill="#42BCED"/></svg><view id="clock-2" viewBox="60 0 18 18"/><svg width="18" height="18" fill="none" viewBox="0 0 18 18" x="60" xmlns="http://www.w3.org/2000/svg"><path d="M9 0a9.001 9.001 0 000 18A9.001 9.001 0 009 0zm0 16.031A7.037 7.037 0 011.969 9 7.037 7.037 0 019 1.969 7.037 7.037 0 0116.031 9 7.037 7.037 0 019 16.031z" fill="#000"/><path d="M13.348 8.786H9.419V4.174a.703.703 0 00-1.406 0v5.92a.703.703 0 00.956.655c.022 0 .042.006.065.006h4.317a.986.986 0 00.984-.984.99.99 0 00-.987-.985z" fill="#000"/></svg><view id="comment" viewBox="30 30 21 18"/><svg width="21" height="18" fill="none" viewBox="0 0 21 18" x="30" y="30" xmlns="http://www.w3.org/2000/svg"><path d="M10.5 0C16.3 0 21 3.727 21 8.33c0 1.833-.747 3.532-2.02 4.904l1.952 4.772-8.27-1.64c-.865.025-1.835.232-2.804.256-.112.006-.223.006-.328.006C3.91 16.628 0 12.84 0 8.329 0 3.727 4.7 0 10.5 0zm0 2.258c-4.521 0-8.202 2.726-8.202 6.071 0 3.442 3.113 6.04 7.238 6.04.087 0 .18 0 .266-.005.39-.013.815-.061 1.26-.116.494-.06 1.007-.121 1.538-.133l.26-.006.253.048 4.095.808-.365-.887-.537-1.311.963-1.044c.649-.704 1.421-1.864 1.421-3.394.012-3.345-3.669-6.07-8.19-6.07z" fill="#000"/></svg><view id="edit" viewBox="0 30 30 30"/><svg width="30" height="30" fill="none" viewBox="0 0 30 30" y="30" xmlns="http://www.w3.org/2000/svg"><path d="M11.418 4.734V3.76h2.742v.975c0 .516.422.938.939.938h.234a.941.941 0 00.94-.938V3.76h2.741v.975c0 .516.423.938.94.938h.234a.941.941 0 00.939-.938V3.76h.563l1.784 1.754v2.803h1.878V4.725l-2.901-2.84h-1.324V.936a.941.941 0 00-.94-.937h-.234a.941.941 0 00-.939.938v.946h-2.742V.938A.941.941 0 0015.333 0H15.1a.941.941 0 00-.94.938v.946h-2.741V.938a.941.941 0 00-.94-.938h-.234a.941.941 0 00-.939.938v.946H6.554V.938A.941.941 0 005.615 0H5.38a.941.941 0 00-.939.938v.946H0V30h8.291l.16-.628.31-1.247H1.878V3.759H4.44v.975c0 .516.423.938.94.938h.234a.941.941 0 00.939-.938V3.76h2.742v.975c0 .516.422.938.939.938h.235a.943.943 0 00.948-.938z" fill="#42BCED"/><path d="M29.436 14.25l-3.004-3c-.733-.731-1.916-.74-2.63-.028l-10.957 10.94-.226.216-1.896 7.566 7.568-1.894.704-.722 10.479-10.453c.713-.712.695-1.894-.038-2.625zM13.4 23.147l4.131 4.125-3.887.975-1.211-1.275.967-3.825zm4.901 1.575l-2.347-2.344 7.85-7.837 2.347 2.343-7.85 7.838z" fill="#42BCED"/></svg></svg>