<svg xmlns="http://www.w3.org/2000/svg" viewBox="0 0 146.88 139.95"><defs><style>.cls-1,.cls-2{fill:#fff;}.cls-2{font-size:89.79px;font-family:Arial-BoldMT, Arial;font-weight:700;letter-spacing:-0.04em;}</style></defs><title>Dai so 7</title><g id="Layer_2" data-name="Layer 2"><g id="Layer_1-2" data-name="Layer 1"><path class="cls-1" d="M143.21,0H53.37a3.67,3.67,0,0,0-3.61,3L31.88,104.54,23.1,71.18a3.67,3.67,0,0,0-5.61-2.1L1.61,79.88a3.67,3.67,0,0,0-1.06,5l.89,1.45a3.67,3.67,0,0,0,4.78,1.35L14,83.71l15.09,53.57a3.67,3.67,0,0,0,7.14-.35L57.67,16.71h85.54A3.67,3.67,0,0,0,146.88,13V3.67A3.67,3.67,0,0,0,143.21,0Z"/><text class="cls-2" transform="translate(67.69 101.2)">A</text></g></g></svg>