<svg xmlns="http://www.w3.org/2000/svg" xmlns:xlink="http://www.w3.org/1999/xlink" viewBox="0 0 239.21 225.82"><defs><style>.cls-1,.cls-3,.cls-4,.cls-5{fill:none;}.cls-2{clip-path:url(#clip-path);}.cls-3{stroke:#00aeef;stroke-miterlimit:10;}.cls-4,.cls-5{stroke:#fff;stroke-linecap:round;stroke-linejoin:round;}.cls-4{stroke-width:3px;}.cls-5{stroke-width:6px;}.cls-6,.cls-7{fill:#fff;}.cls-7{font-size:36px;font-family:Comfortaa-Bold, Comfortaa;font-weight:700;}</style><clipPath id="clip-path"><path class="cls-1" d="M188.89,111.45c-11.73,15.46-4.83,26.65-13,37.85s-18,3.53-37.2,15.5C119.16,177,121.27,190,106,194.38c-14,4-29.31-3.06-38-10.61-10-8.72-7.1-14.47-19-34.46C35.26,126.3,27,126.61,23,111.45c-5-18.9,2.37-40.09,9.82-41.11S45.68,88.09,52.64,86.75C61.22,85.11,60,55.27,67.38,54.29c5.85-.78,10,17.49,16.62,17.15,10-.51,12.83-42.58,22-42.91,6.82-.24,7.72,23.15,21.8,27.59C140,60,148.84,45.45,157.67,49.56c13.23,6.15,2.46,43,17.51,50.33,7.38,3.6,17.18-1.76,19,1.91C195.31,104.19,191.74,107.7,188.89,111.45Z"/></clipPath></defs><title>Dai so 9</title><g id="Layer_2" data-name="Layer 2"><g id="Layer_1-2" data-name="Layer 1"><g class="cls-2"><line class="cls-3" x1="9.37" y1="54.29" x2="212.07" y2="54.29"/><line class="cls-3" x1="9.37" y1="82.79" x2="212.07" y2="82.79"/><line class="cls-3" x1="9.37" y1="120.8" x2="212.07" y2="120.8"/><line class="cls-3" x1="9.37" y1="16.28" x2="212.07" y2="16.28"/><line class="cls-3" x1="9.37" y1="44.78" x2="212.07" y2="44.78"/><line class="cls-3" x1="9.37" y1="92.29" x2="212.07" y2="92.29"/><line class="cls-3" x1="9.37" y1="168.31" x2="212.07" y2="168.31"/><line class="cls-3" x1="9.37" y1="196.81" x2="212.07" y2="196.81"/><line class="cls-3" x1="9.37" y1="225.32" x2="212.07" y2="225.32"/><line class="cls-3" x1="9.37" y1="130.3" x2="212.07" y2="130.3"/><line class="cls-3" x1="9.37" y1="158.8" x2="212.07" y2="158.8"/><line class="cls-3" x1="9.37" y1="206.31" x2="212.07" y2="206.31"/><line class="cls-3" x1="9.37" y1="35.28" x2="212.07" y2="35.28"/><line class="cls-3" x1="9.37" y1="63.79" x2="212.07" y2="63.79"/><line class="cls-3" x1="9.37" y1="101.79" x2="212.07" y2="101.79"/><line class="cls-3" x1="9.37" y1="6.78" x2="212.07" y2="6.78"/><line class="cls-3" x1="9.37" y1="25.78" x2="212.07" y2="25.78"/><line class="cls-3" x1="9.37" y1="73.29" x2="212.07" y2="73.29"/><line class="cls-3" x1="9.37" y1="149.3" x2="212.07" y2="149.3"/><line class="cls-3" x1="9.37" y1="177.81" x2="212.07" y2="177.81"/><line class="cls-3" x1="9.37" y1="215.81" x2="212.07" y2="215.81"/><line class="cls-3" x1="9.37" y1="111.3" x2="212.07" y2="111.3"/><line class="cls-3" x1="9.37" y1="139.8" x2="212.07" y2="139.8"/><line class="cls-3" x1="9.37" y1="187.31" x2="212.07" y2="187.31"/><line class="cls-3" x1="48.95" y1="217.4" x2="48.95" y2="14.7"/><line class="cls-3" x1="77.46" y1="217.4" x2="77.46" y2="14.7"/><line class="cls-3" x1="115.47" y1="217.4" x2="115.47" y2="14.7"/><line class="cls-3" x1="10.95" y1="217.4" x2="10.95" y2="14.7"/><line class="cls-3" x1="39.45" y1="217.4" x2="39.45" y2="14.7"/><line class="cls-3" x1="86.96" y1="217.4" x2="86.96" y2="14.7"/><line class="cls-3" x1="162.97" y1="217.4" x2="162.97" y2="14.7"/><line class="cls-3" x1="191.48" y1="217.4" x2="191.48" y2="14.7"/><line class="cls-3" x1="219.98" y1="217.4" x2="219.98" y2="14.7"/><line class="cls-3" x1="124.97" y1="217.4" x2="124.97" y2="14.7"/><line class="cls-3" x1="153.47" y1="217.4" x2="153.47" y2="14.7"/><line class="cls-3" x1="200.98" y1="217.4" x2="200.98" y2="14.7"/><line class="cls-3" x1="29.95" y1="217.4" x2="29.95" y2="14.7"/><line class="cls-3" x1="58.46" y1="217.4" x2="58.46" y2="14.7"/><line class="cls-3" x1="96.46" y1="217.4" x2="96.46" y2="14.7"/><line class="cls-3" x1="1.45" y1="217.4" x2="1.45" y2="14.7"/><line class="cls-3" x1="20.45" y1="217.4" x2="20.45" y2="14.7"/><line class="cls-3" x1="67.96" y1="217.4" x2="67.96" y2="14.7"/><line class="cls-3" x1="143.97" y1="217.4" x2="143.97" y2="14.7"/><line class="cls-3" x1="172.48" y1="217.4" x2="172.48" y2="14.7"/><line class="cls-3" x1="210.48" y1="217.4" x2="210.48" y2="14.7"/><line class="cls-3" x1="105.96" y1="217.4" x2="105.96" y2="14.7"/><line class="cls-3" x1="134.47" y1="217.4" x2="134.47" y2="14.7"/><line class="cls-3" x1="181.98" y1="217.4" x2="181.98" y2="14.7"/></g><line class="cls-4" x1="109.91" y1="7.1" x2="109.91" y2="210.05"/><path class="cls-5" d="M95,17.82"/><polygon class="cls-6" points="101.78 11.6 118.05 11.6 109.91 0 101.78 11.6"/><line class="cls-4" x1="204.45" y1="108.41" x2="1.5" y2="108.41"/><path class="cls-5" d="M193.73,93.51"/><polygon class="cls-6" points="199.96 100.28 199.96 116.55 211.55 108.41 199.96 100.28"/><path class="cls-4" d="M57.11,36.86c8.5,80.53,31.94,137.82,52.8,138s45.6-57.22,55.2-139"/><text class="cls-7" transform="translate(143.63 197.44)">y=ax²</text></g></g></svg>