<svg xmlns="http://www.w3.org/2000/svg" viewBox="0 0 256.43 58.01"><defs><style>.cls-1{fill:#fff;}.cls-2{fill:none;stroke:#fff;stroke-linecap:round;stroke-linejoin:round;stroke-width:3px;}</style></defs><title>Dai so 6</title><g id="Layer_2" data-name="Layer 2"><g id="Layer_1-2" data-name="Layer 1"><path class="cls-1" d="M3,17.24a1.76,1.76,0,0,1,0,2.49,1.67,1.67,0,0,1-1.24.52,1.68,1.68,0,0,1-1.23-.52A1.68,1.68,0,0,1,0,18.49a1.71,1.71,0,0,1,.52-1.26,1.68,1.68,0,0,1,1.23-.52A1.68,1.68,0,0,1,3,17.24Z"/><path class="cls-1" d="M9,17.24a1.76,1.76,0,0,1,0,2.49,1.73,1.73,0,0,1-2.47,0A1.68,1.68,0,0,1,6,18.49a1.71,1.71,0,0,1,.52-1.26,1.72,1.72,0,0,1,2.46,0Z"/><path class="cls-1" d="M15.05,17.24a1.76,1.76,0,0,1,0,2.49,1.76,1.76,0,0,1-3-1.23,1.71,1.71,0,0,1,.52-1.26,1.72,1.72,0,0,1,2.46,0Z"/><path class="cls-1" d="M21.09,17.24a1.76,1.76,0,0,1,0,2.49,1.76,1.76,0,0,1-3-1.23,1.71,1.71,0,0,1,.52-1.26,1.72,1.72,0,0,1,2.46,0Z"/><path class="cls-1" d="M27.13,17.24a1.76,1.76,0,0,1,0,2.49,1.76,1.76,0,0,1-3-1.23,1.71,1.71,0,0,1,.52-1.26,1.72,1.72,0,0,1,2.46,0Z"/><path class="cls-1" d="M37.69,12a1.28,1.28,0,0,1,.36.93,1.22,1.22,0,0,1-1.27,1.27H31.12a1.28,1.28,0,0,1-.93-.36,1.21,1.21,0,0,1-.37-.91,1.26,1.26,0,0,1,1.29-1.29h5.66A1.21,1.21,0,0,1,37.69,12Z"/><path class="cls-1" d="M41,4a1.28,1.28,0,0,1-.93-.35,1.21,1.21,0,0,1-.37-.91,1.36,1.36,0,0,1,.2-.75,1.19,1.19,0,0,1,.63-.47l4-1.42A1.64,1.64,0,0,1,45,0a1.22,1.22,0,0,1,.91.37,1.31,1.31,0,0,1,.35,1v17.2a1.25,1.25,0,0,1-.38.91,1.28,1.28,0,0,1-.94.38,1.22,1.22,0,0,1-.89-.38,1.25,1.25,0,0,1-.38-.91V3.07l-1.85.79A2.14,2.14,0,0,1,41,4Z"/><path class="cls-1" d="M53,17.24a1.76,1.76,0,0,1,0,2.49,1.76,1.76,0,0,1-3-1.23,1.71,1.71,0,0,1,.52-1.26,1.72,1.72,0,0,1,2.46,0Z"/><path class="cls-1" d="M71,12a1.28,1.28,0,0,1,.36.93,1.22,1.22,0,0,1-1.27,1.27H64.47a1.28,1.28,0,0,1-.93-.36,1.21,1.21,0,0,1-.37-.91,1.26,1.26,0,0,1,1.29-1.29h5.66A1.21,1.21,0,0,1,71,12Z"/><path class="cls-1" d="M84.18,17.63a1.29,1.29,0,0,1,0,1.83,1.27,1.27,0,0,1-.94.38H73.86a1.23,1.23,0,0,1-.93-.38,1.27,1.27,0,0,1-.37-.91,1.24,1.24,0,0,1,.35-.91l7.2-8.42A5.23,5.23,0,0,0,81.72,6a3.91,3.91,0,0,0-.85-2.64,2.9,2.9,0,0,0-2.32-1,3.17,3.17,0,0,0-1.72.49A3.45,3.45,0,0,0,75.6,4.24,3.78,3.78,0,0,0,75.15,6a1.29,1.29,0,0,1-2.21.89A1.22,1.22,0,0,1,72.57,6,6.06,6.06,0,0,1,73.35,3,5.77,5.77,0,0,1,75.5.81,6,6,0,0,1,78.55,0a5.88,5.88,0,0,1,3,.74,5,5,0,0,1,2,2.09A6.88,6.88,0,0,1,84.21,6a4.91,4.91,0,0,1-.65,2.32A12.14,12.14,0,0,1,82,10.65l-5.81,6.59h7.1A1.27,1.27,0,0,1,84.18,17.63Z"/><path class="cls-1" d="M102,12a1.28,1.28,0,0,1,.36.93,1.22,1.22,0,0,1-1.27,1.27H95.47a1.28,1.28,0,0,1-.93-.36,1.21,1.21,0,0,1-.37-.91,1.26,1.26,0,0,1,1.29-1.29h5.66A1.21,1.21,0,0,1,102,12Z"/><path class="cls-1" d="M113.83.65a5,5,0,0,1,1.92,1.76,4.6,4.6,0,0,1,.7,2.49,3.52,3.52,0,0,1-.86,2.37,6.11,6.11,0,0,1-2.16,1.59,5.52,5.52,0,0,1,2.87,2,5.5,5.5,0,0,1,.94,3.21A5.38,5.38,0,0,1,116.4,17a5.88,5.88,0,0,1-2.24,2.07,6.41,6.41,0,0,1-3.06.75,7,7,0,0,1-3.36-.8,6,6,0,0,1-2.32-2.18,5.88,5.88,0,0,1-.84-3.11,1.38,1.38,0,0,1,.33-.94,1.11,1.11,0,0,1,1.67,0,1.38,1.38,0,0,1,.33.94,3.61,3.61,0,0,0,.53,1.91,3.91,3.91,0,0,0,1.46,1.39,4.09,4.09,0,0,0,2,.52,3.84,3.84,0,0,0,2.71-.94,3.35,3.35,0,0,0,1-2.59,4.08,4.08,0,0,0-.46-1.92A3.45,3.45,0,0,0,113,10.77a3.29,3.29,0,0,0-1.76-.49,1.23,1.23,0,0,1-.93-.38A1.3,1.3,0,0,1,109.9,9a1.26,1.26,0,0,1,1.29-1.29,2.85,2.85,0,0,0,1.38-.37,3,3,0,0,0,1.09-1,2.48,2.48,0,0,0,.42-1.39A2.47,2.47,0,0,0,113.28,3a2.92,2.92,0,0,0-2.08-.76,4,4,0,0,0-1.76.38,3.31,3.31,0,0,0-1.27,1,2.33,2.33,0,0,0-.47,1.42,1.47,1.47,0,0,1-.33,1,1,1,0,0,1-.84.39,1.07,1.07,0,0,1-.84-.37,1.33,1.33,0,0,1-.33-.93,4.74,4.74,0,0,1,.76-2.63A5.26,5.26,0,0,1,108.2.67,6.39,6.39,0,0,1,111.15,0,5.64,5.64,0,0,1,113.83.65Z"/><path class="cls-1" d="M122.81,17.37a2.94,2.94,0,0,1,.51,1.83,6.12,6.12,0,0,1-.47,2.23,6.94,6.94,0,0,1-1.15,2,1.83,1.83,0,0,1-1.27.8A.59.59,0,0,1,120,24a.69.69,0,0,1-.16-.47,1.31,1.31,0,0,1,.13-.57,3.45,3.45,0,0,1,.41-.62,5.36,5.36,0,0,0,.48-.77,1.71,1.71,0,0,0,.15-.75,1.2,1.2,0,0,0-.17-.65,3.25,3.25,0,0,0-.47-.57,3.66,3.66,0,0,1-.51-.61,1.3,1.3,0,0,1-.18-.71,1.53,1.53,0,0,1,.47-1.14,1.69,1.69,0,0,1,1.23-.46A1.75,1.75,0,0,1,122.81,17.37Z"/><path class="cls-1" d="M142.62,1.19a7.39,7.39,0,0,1,2.08,3.42,17.58,17.58,0,0,1,.71,5.3,17.58,17.58,0,0,1-.71,5.3,7.38,7.38,0,0,1-2.08,3.42,4.82,4.82,0,0,1-3.27,1.19,5,5,0,0,1-4.48-2.61,14.11,14.11,0,0,1-1.59-7.3,14.11,14.11,0,0,1,1.59-7.3A5,5,0,0,1,139.35,0,4.82,4.82,0,0,1,142.62,1.19Zm-5.85,3.44a13.44,13.44,0,0,0-.88,5.29,13.15,13.15,0,0,0,.89,5.29,2.65,2.65,0,0,0,5.14,0,13.34,13.34,0,0,0,.87-5.28,13.3,13.3,0,0,0-.89-5.28,2.64,2.64,0,0,0-5.14,0Z"/><path class="cls-1" d="M156.29,4a1.28,1.28,0,0,1-.93-.35,1.21,1.21,0,0,1-.37-.91,1.36,1.36,0,0,1,.2-.75,1.19,1.19,0,0,1,.63-.47l4-1.42a1.64,1.64,0,0,1,.48-.1,1.22,1.22,0,0,1,.91.37,1.31,1.31,0,0,1,.35,1v17.2a1.25,1.25,0,0,1-.38.91,1.28,1.28,0,0,1-.94.38,1.22,1.22,0,0,1-.89-.38,1.25,1.25,0,0,1-.38-.91V3.07l-1.85.79A2.14,2.14,0,0,1,156.29,4Z"/><path class="cls-1" d="M168.52,17.37A2.94,2.94,0,0,1,169,19.2a6.12,6.12,0,0,1-.47,2.23,6.94,6.94,0,0,1-1.15,2,1.83,1.83,0,0,1-1.27.8.59.59,0,0,1-.47-.19.69.69,0,0,1-.16-.47,1.31,1.31,0,0,1,.13-.57,3.45,3.45,0,0,1,.41-.62,5.36,5.36,0,0,0,.48-.77,1.71,1.71,0,0,0,.15-.75,1.2,1.2,0,0,0-.17-.65,3.25,3.25,0,0,0-.47-.57,3.66,3.66,0,0,1-.51-.61,1.3,1.3,0,0,1-.18-.71,1.53,1.53,0,0,1,.47-1.14,1.69,1.69,0,0,1,1.23-.46A1.75,1.75,0,0,1,168.52,17.37Z"/><path class="cls-1" d="M191,17.63a1.29,1.29,0,0,1,0,1.83,1.27,1.27,0,0,1-.94.38h-9.38a1.23,1.23,0,0,1-.93-.38,1.27,1.27,0,0,1-.37-.91,1.24,1.24,0,0,1,.35-.91l7.2-8.42A5.23,5.23,0,0,0,188.53,6a3.91,3.91,0,0,0-.85-2.64,2.9,2.9,0,0,0-2.32-1,3.17,3.17,0,0,0-1.72.49,3.45,3.45,0,0,0-1.23,1.33A3.78,3.78,0,0,0,182,6a1.29,1.29,0,0,1-2.21.89,1.22,1.22,0,0,1-.38-.89A6.06,6.06,0,0,1,180.16,3,5.77,5.77,0,0,1,182.3.81,6,6,0,0,1,185.36,0a5.88,5.88,0,0,1,3,.74,5,5,0,0,1,2,2.09A6.88,6.88,0,0,1,191,6a4.91,4.91,0,0,1-.65,2.32,12.14,12.14,0,0,1-1.61,2.3L183,17.25h7.1A1.27,1.27,0,0,1,191,17.63Z"/><path class="cls-1" d="M204.51,17.37A2.94,2.94,0,0,1,205,19.2a6.12,6.12,0,0,1-.47,2.23,6.94,6.94,0,0,1-1.15,2,1.83,1.83,0,0,1-1.27.8.59.59,0,0,1-.47-.19.69.69,0,0,1-.16-.47,1.31,1.31,0,0,1,.13-.57,3.45,3.45,0,0,1,.41-.62,5.36,5.36,0,0,0,.48-.77,1.71,1.71,0,0,0,.15-.75,1.2,1.2,0,0,0-.17-.65,3.25,3.25,0,0,0-.47-.57,3.66,3.66,0,0,1-.51-.61,1.3,1.3,0,0,1-.18-.71,1.53,1.53,0,0,1,.47-1.14,1.69,1.69,0,0,1,1.23-.46A1.75,1.75,0,0,1,204.51,17.37Z"/><path class="cls-1" d="M216.94.65a5,5,0,0,1,1.92,1.76,4.6,4.6,0,0,1,.7,2.49,3.52,3.52,0,0,1-.86,2.37,6.11,6.11,0,0,1-2.16,1.59,5.52,5.52,0,0,1,2.87,2,5.5,5.5,0,0,1,.94,3.21A5.38,5.38,0,0,1,219.5,17a5.88,5.88,0,0,1-2.24,2.07,6.41,6.41,0,0,1-3.06.75,7,7,0,0,1-3.36-.8,6,6,0,0,1-2.32-2.18,5.88,5.88,0,0,1-.84-3.11,1.38,1.38,0,0,1,.33-.94,1.11,1.11,0,0,1,1.67,0,1.38,1.38,0,0,1,.33.94,3.61,3.61,0,0,0,.53,1.91A3.91,3.91,0,0,0,212,17.06a4.09,4.09,0,0,0,2,.52,3.84,3.84,0,0,0,2.71-.94,3.35,3.35,0,0,0,1-2.59,4.08,4.08,0,0,0-.46-1.92,3.45,3.45,0,0,0-1.26-1.37,3.29,3.29,0,0,0-1.76-.49,1.23,1.23,0,0,1-.93-.38A1.3,1.3,0,0,1,213,9a1.26,1.26,0,0,1,1.29-1.29,2.85,2.85,0,0,0,1.38-.37,3,3,0,0,0,1.09-1,2.48,2.48,0,0,0,.42-1.39A2.47,2.47,0,0,0,216.38,3a2.92,2.92,0,0,0-2.08-.76,4,4,0,0,0-1.76.38,3.31,3.31,0,0,0-1.27,1,2.33,2.33,0,0,0-.47,1.42,1.47,1.47,0,0,1-.33,1,1,1,0,0,1-.84.39,1.07,1.07,0,0,1-.84-.37,1.33,1.33,0,0,1-.33-.93,4.74,4.74,0,0,1,.76-2.63A5.26,5.26,0,0,1,211.31.67,6.39,6.39,0,0,1,214.25,0,5.64,5.64,0,0,1,216.94.65Z"/><path class="cls-1" d="M225.73,17.24a1.76,1.76,0,0,1,0,2.49,1.76,1.76,0,0,1-3-1.23,1.71,1.71,0,0,1,.52-1.26,1.72,1.72,0,0,1,2.46,0Z"/><path class="cls-1" d="M231.77,17.24a1.76,1.76,0,0,1,0,2.49,1.76,1.76,0,0,1-3-1.23,1.71,1.71,0,0,1,.52-1.26,1.72,1.72,0,0,1,2.46,0Z"/><path class="cls-1" d="M237.8,17.24a1.76,1.76,0,0,1,0,2.49,1.76,1.76,0,0,1-3-1.23,1.71,1.71,0,0,1,.52-1.26,1.72,1.72,0,0,1,2.46,0Z"/><path class="cls-1" d="M243.84,17.24a1.76,1.76,0,0,1,0,2.49,1.76,1.76,0,0,1-3-1.23,1.71,1.71,0,0,1,.52-1.26,1.72,1.72,0,0,1,2.46,0Z"/><path class="cls-1" d="M249.87,17.24a1.76,1.76,0,0,1,0,2.49,1.76,1.76,0,0,1-3-1.23,1.71,1.71,0,0,1,.52-1.26,1.72,1.72,0,0,1,2.46,0Z"/><path class="cls-1" d="M255.91,17.24a1.76,1.76,0,0,1,0,2.49,1.76,1.76,0,0,1-3-1.23,1.71,1.71,0,0,1,.52-1.26,1.72,1.72,0,0,1,2.46,0Z"/><line class="cls-2" x1="99.57" y1="49.93" x2="112.72" y2="49.93"/><line class="cls-2" x1="106.14" y1="43.36" x2="106.14" y2="56.51"/><line class="cls-2" x1="160.37" y1="49.93" x2="173.52" y2="49.93"/><line class="cls-2" x1="131.89" y1="45.28" x2="141.19" y2="54.58"/><line class="cls-2" x1="141.19" y1="45.28" x2="131.89" y2="54.58"/><line class="cls-2" x1="69.17" y1="49.93" x2="82.32" y2="49.93"/><path class="cls-1" d="M75.74,47.15c3.22,0,3.22-5,0-5s-3.22,5,0,5Z"/><path class="cls-1" d="M75.74,57.72c3.22,0,3.22-5,0-5s-3.22,5,0,5Z"/></g></g></svg>