<svg xmlns="http://www.w3.org/2000/svg" viewBox="0 0 214.53 214.53"><defs><style>.cls-1{fill:#662d91;}.cls-1,.cls-2,.cls-4{stroke:#fff;stroke-miterlimit:10;}.cls-1,.cls-2{stroke-width:5px;}.cls-2{fill:#92278f;}.cls-3{fill:#fff;}.cls-4{fill:none;stroke-width:3px;}</style></defs><title>Hinh 9</title><g id="Layer_2" data-name="Layer 2"><g id="Layer_1-2" data-name="Layer 1"><circle class="cls-1" cx="107.26" cy="107.26" r="103.73"/><rect class="cls-2" x="33.92" y="33.92" width="146.69" height="146.69" transform="translate(-44.43 107.26) rotate(-45)"/><path class="cls-3" d="M107.26,109.76c3.22,0,3.22-5,0-5s-3.22,5,0,5Z"/><path class="cls-4" d="M200.35,117.11a12.71,12.71,0,0,1-5.39-9.23,12.34,12.34,0,0,1,5.77-11.16"/><path class="cls-4" d="M15.27,96.72A12.71,12.71,0,0,1,20.65,106a12.34,12.34,0,0,1-5.77,11.16"/><path class="cls-4" d="M199.9,121a14.57,14.57,0,0,1-1.29-28.22"/></g></g></svg>