<svg xmlns="http://www.w3.org/2000/svg" viewBox="0 0 158.78 195.65"><defs><style>.cls-1,.cls-2,.cls-3,.cls-4,.cls-5{fill:none;stroke-width:3px;}.cls-1{stroke:#55a4db;}.cls-1,.cls-2,.cls-3,.cls-5{stroke-miterlimit:10;}.cls-2{stroke:#ee2d30;}.cls-3{stroke:#f79226;}.cls-4,.cls-5{stroke:#fff;}.cls-4{stroke-linejoin:round;}.cls-6{fill:#55a4db;}.cls-7{fill:#f79226;}.cls-8{fill:#ee2d30;}</style></defs><title>Hinh 7</title><g id="Layer_2" data-name="Layer 2"><g id="Layer_1-2" data-name="Layer 1"><rect class="cls-1" x="1.5" y="77.97" width="39.79" height="39.79"/><rect class="cls-2" x="41.29" y="117.76" width="76.39" height="76.39"/><rect class="cls-3" x="55.97" y="16.85" width="85.96" height="85.96" transform="translate(37.95 -38.4) rotate(27)"/><polygon class="cls-4" points="41.15 78.61 41.29 117.76 117.74 117.64 41.15 78.61"/><rect class="cls-5" x="41.36" y="111.75" width="6" height="6"/><path class="cls-6" d="M16.76,108.88a3.23,3.23,0,0,1-1-1,2.22,2.22,0,0,1,.14-2.67,4.75,4.75,0,0,1,1.67-1.07l2.8-1.18a1.66,1.66,0,0,0,.69-.4,1.84,1.84,0,0,0,.14-.78L21.3,100a1.88,1.88,0,0,0-.39-1.31,1.44,1.44,0,0,0-1.17-.5,2.5,2.5,0,0,0-.82.14,2,2,0,0,0-.68.37,1,1,0,0,0-.23.75l0,.63c0,.15-.27.37-.82.65a3.16,3.16,0,0,1-1.31.42.34.34,0,0,1-.27-.12.38.38,0,0,1-.1-.26,2.81,2.81,0,0,1,1.21-2,9.22,9.22,0,0,1,2.31-1.48,5.55,5.55,0,0,1,2.22-.59,2.53,2.53,0,0,1,2,.82A2.93,2.93,0,0,1,24,99.69l-.14,6.52a1.62,1.62,0,0,0,.26,1,.86.86,0,0,0,.72.4,1.41,1.41,0,0,0,1-.35.32.32,0,0,1,.2-.11.33.33,0,0,1,.25.1.3.3,0,0,1,.1.22,1.12,1.12,0,0,1-.4.72,4,4,0,0,1-1.05.76,2.49,2.49,0,0,1-1.08.27,2.55,2.55,0,0,1-2.31-1.56h-.09a7,7,0,0,1-1.79,1.2,4.35,4.35,0,0,1-1.73.36A2.12,2.12,0,0,1,16.76,108.88Zm4.08-1.77a1.56,1.56,0,0,0,.32-1l.06-1.64v-.14q0-.4-.26-.4a1.31,1.31,0,0,0-.49.14,5.46,5.46,0,0,0-1.8,1,1.61,1.61,0,0,0-.53,1.18,1.5,1.5,0,0,0,.39,1.11,1.25,1.25,0,0,0,.91.39A1.94,1.94,0,0,0,20.84,107.1Z"/><path class="cls-6" d="M31.13,96.88q-1.12-.06-1.94-.06l-2.56,0-.87,0a.39.39,0,0,1-.2-.1c-.09-.07-.13-.12-.13-.18a.24.24,0,0,1,.07-.17l.09-.09,2.67-2.83a5.91,5.91,0,0,0,1.85-4.05,1.81,1.81,0,0,0-.46-1.29,1.51,1.51,0,0,0-1.15-.49,2.22,2.22,0,0,0-1.18.34,2.86,2.86,0,0,0-.91.9q-.2.27-.38.27c-.07,0-.12,0-.16-.13a.73.73,0,0,1-.07-.33,1.59,1.59,0,0,1,.46-.87,4.12,4.12,0,0,1,1.22-1,3.35,3.35,0,0,1,1.63-.41,2.5,2.5,0,0,1,1.93.77,2.79,2.79,0,0,1,.71,2,3.64,3.64,0,0,1-.36,1.47,6.12,6.12,0,0,1-.89,1.43q-.43.49-2.18,2.24-1.09,1.09-1.09,1.12s.08.08.23.1a12.21,12.21,0,0,0,1.47.07q1,0,1.73-.07a2.33,2.33,0,0,0,1-.2,1.68,1.68,0,0,0,.58-.66q.23-.36.43-.36a.13.13,0,0,1,.13.07.3.3,0,0,1,0,.17l-.16.53a13,13,0,0,0-.41,1.4.43.43,0,0,1-.15.3.38.38,0,0,1-.21.08Z"/><path class="cls-7" d="M94.16,65.77a5.27,5.27,0,0,1-1.87-2.09,6.43,6.43,0,0,1-.68-3,7,7,0,0,1,.84-3.39,6.49,6.49,0,0,1,2.25-2.44A5.71,5.71,0,0,1,97.8,54a5.37,5.37,0,0,1,3.52,1.18.72.72,0,0,1,.32.55,1.22,1.22,0,0,1-.46.79,1.28,1.28,0,0,1-.84.45.69.69,0,0,1-.36-.11,3,3,0,0,1-.36-.26,9.51,9.51,0,0,0-1.49-1,2.89,2.89,0,0,0-1.28-.4,2.35,2.35,0,0,0-2.06,1.18A6,6,0,0,0,94,59.65,5,5,0,0,0,95.19,63a3.78,3.78,0,0,0,3,1.34,3.57,3.57,0,0,0,1.46-.27,4.73,4.73,0,0,0,1.31-.94,1,1,0,0,1,.37-.17.28.28,0,0,1,.23.11.47.47,0,0,1,.09.29,1.68,1.68,0,0,1-.35.87,5.42,5.42,0,0,1-1.85,1.62,5.27,5.27,0,0,1-2.63.66A4.86,4.86,0,0,1,94.16,65.77Z"/><path class="cls-7" d="M109.47,54.12q-1.12-.06-1.94-.06l-2.56,0-.87,0a.39.39,0,0,1-.2-.1c-.09-.07-.13-.12-.13-.18a.24.24,0,0,1,.07-.17l.09-.09,2.67-2.83a5.91,5.91,0,0,0,1.85-4.05A1.81,1.81,0,0,0,108,45.4a1.51,1.51,0,0,0-1.15-.49,2.22,2.22,0,0,0-1.18.34,2.86,2.86,0,0,0-.91.9q-.2.27-.38.27c-.07,0-.12,0-.16-.13a.73.73,0,0,1-.07-.33,1.59,1.59,0,0,1,.46-.87,4.12,4.12,0,0,1,1.22-1,3.35,3.35,0,0,1,1.63-.41,2.5,2.5,0,0,1,1.93.77,2.79,2.79,0,0,1,.71,2,3.64,3.64,0,0,1-.36,1.47,6.12,6.12,0,0,1-.89,1.43q-.43.49-2.18,2.24-1.09,1.09-1.09,1.12s.08.08.23.1a12.21,12.21,0,0,0,1.47.07q1,0,1.73-.07a2.33,2.33,0,0,0,1-.2,1.68,1.68,0,0,0,.58-.66q.23-.36.43-.36a.13.13,0,0,1,.13.07.3.3,0,0,1,0,.17l-.16.53a13,13,0,0,0-.41,1.4.43.43,0,0,1-.15.3.38.38,0,0,1-.21.08Z"/><path class="cls-8" d="M72.69,167l-.63-.17a4.7,4.7,0,0,0-1-.23,1.27,1.27,0,0,0-.78.38.74.74,0,0,1-.32.17.5.5,0,0,1-.32-.12.33.33,0,0,1-.14-.26,3.57,3.57,0,0,1,.09-.63q0-.17.1-.71a7.44,7.44,0,0,0,.07-1l-.06-13.58a2.7,2.7,0,0,0-.32-1.34,1.62,1.62,0,0,0-.92-.76c-.25-.08-.37-.22-.37-.43s.11-.31.35-.35A26.34,26.34,0,0,0,72,146.7a.67.67,0,0,1,.29-.09c.15,0,.23.09.23.26s0,.37,0,.88,0,1.08,0,1.72l0,6c0,.6.09.9.26.9a7.58,7.58,0,0,1,2-1.11,5.8,5.8,0,0,1,2-.42,4.88,4.88,0,0,1,2.65.76,5.36,5.36,0,0,1,1.9,2.08,6.18,6.18,0,0,1,.69,2.93,7.2,7.2,0,0,1-.84,3.52,6,6,0,0,1-2.34,2.38,6.83,6.83,0,0,1-3.43.85A10.78,10.78,0,0,1,72.69,167Zm5.54-2a6.91,6.91,0,0,0,.87-3.61,7.26,7.26,0,0,0-.4-2.38A4.86,4.86,0,0,0,77.48,157a2.76,2.76,0,0,0-2-.78,5.13,5.13,0,0,0-1.73.29,4.42,4.42,0,0,0-1.38.78v5.8a3,3,0,0,0,1.07,2.36,3.67,3.67,0,0,0,2.48.92A2.61,2.61,0,0,0,78.23,164.9Z"/><path class="cls-8" d="M88.49,155q-1.12-.06-1.94-.06l-2.56,0-.87,0a.39.39,0,0,1-.2-.1c-.09-.07-.13-.12-.13-.18a.24.24,0,0,1,.07-.17l.09-.09,2.67-2.83a5.91,5.91,0,0,0,1.85-4.05,1.81,1.81,0,0,0-.46-1.29,1.51,1.51,0,0,0-1.15-.49,2.22,2.22,0,0,0-1.18.34,2.86,2.86,0,0,0-.91.9q-.2.27-.38.27c-.07,0-.12,0-.16-.13a.73.73,0,0,1-.07-.33,1.59,1.59,0,0,1,.46-.87,4.12,4.12,0,0,1,1.22-1,3.35,3.35,0,0,1,1.63-.41,2.5,2.5,0,0,1,1.93.77,2.79,2.79,0,0,1,.71,2,3.64,3.64,0,0,1-.36,1.47,6.12,6.12,0,0,1-.89,1.43q-.43.49-2.18,2.24-1.09,1.09-1.09,1.12s.08.08.23.1a12.21,12.21,0,0,0,1.47.07q1,0,1.73-.07a2.33,2.33,0,0,0,1-.2,1.68,1.68,0,0,0,.58-.66q.23-.36.43-.36a.13.13,0,0,1,.13.07.3.3,0,0,1,0,.17l-.16.53a13,13,0,0,0-.41,1.4.43.43,0,0,1-.15.3.38.38,0,0,1-.21.08Z"/></g></g></svg>