<svg xmlns="http://www.w3.org/2000/svg" viewBox="0 0 227.95 227.95"><defs><style>.cls-1{fill:#fff;}.cls-2{fill:none;stroke:#fff;stroke-linecap:round;stroke-linejoin:round;stroke-width:6px;}</style></defs><title>Hinh 6</title><g id="Layer_2" data-name="Layer 2"><g id="Layer_1-2" data-name="Layer 1"><path class="cls-1" d="M5.15,224.41l-3.21,3.21A1.14,1.14,0,0,1,.33,226l3.21-3.21a1.14,1.14,0,1,1,1.61,1.61Z"/><path class="cls-1" d="M218.14,11.41l-6.26,6.26a1.14,1.14,0,0,1-1.61-1.61l6.26-6.26a1.14,1.14,0,1,1,1.61,1.61ZM205.61,23.94l-6.26,6.26a1.14,1.14,0,1,1-1.61-1.61L204,22.34a1.14,1.14,0,0,1,1.61,1.61ZM193.08,36.47l-6.26,6.26a1.14,1.14,0,0,1-1.61-1.61l6.26-6.26a1.14,1.14,0,1,1,1.61,1.61ZM180.56,49l-6.26,6.26a1.14,1.14,0,0,1-1.61-1.61l6.26-6.26A1.14,1.14,0,0,1,180.56,49ZM168,61.53l-6.26,6.26a1.14,1.14,0,0,1-1.61-1.61l6.26-6.26A1.14,1.14,0,1,1,168,61.53ZM155.5,74.06l-6.26,6.26a1.14,1.14,0,1,1-1.61-1.61l6.26-6.26a1.14,1.14,0,1,1,1.61,1.61ZM143,86.59l-6.26,6.26a1.14,1.14,0,0,1-1.61-1.61L141.36,85A1.14,1.14,0,1,1,143,86.59ZM130.44,99.12l-6.26,6.26a1.14,1.14,0,0,1-1.61-1.61l6.26-6.26a1.14,1.14,0,1,1,1.61,1.61Zm-12.53,12.53-6.26,6.26A1.14,1.14,0,1,1,110,116.3L116.3,110a1.14,1.14,0,1,1,1.61,1.61Zm-12.53,12.53-6.26,6.26a1.14,1.14,0,1,1-1.61-1.61l6.26-6.26a1.14,1.14,0,1,1,1.61,1.61ZM92.85,136.7,86.59,143A1.14,1.14,0,0,1,85,141.36l6.26-6.26a1.14,1.14,0,0,1,1.61,1.61ZM80.32,149.23l-6.26,6.26a1.14,1.14,0,0,1-1.61-1.61l6.26-6.26a1.14,1.14,0,0,1,1.61,1.61ZM67.79,161.76,61.53,168a1.14,1.14,0,1,1-1.61-1.61l6.26-6.26a1.14,1.14,0,0,1,1.61,1.61ZM55.26,174.29,49,180.55a1.14,1.14,0,1,1-1.61-1.61l6.26-6.26a1.14,1.14,0,1,1,1.61,1.61ZM42.74,186.82l-6.26,6.26a1.14,1.14,0,0,1-1.61-1.61l6.26-6.26a1.14,1.14,0,0,1,1.61,1.61ZM30.21,199.35l-6.26,6.26A1.14,1.14,0,0,1,22.34,204l6.26-6.26a1.14,1.14,0,1,1,1.61,1.61ZM17.68,211.88l-6.26,6.26a1.14,1.14,0,0,1-1.61-1.61l6.26-6.26a1.14,1.14,0,0,1,1.61,1.61Z"/><path class="cls-1" d="M227.62,1.94l-3.21,3.21a1.14,1.14,0,1,1-1.61-1.61L226,.33a1.14,1.14,0,1,1,1.61,1.61Z"/><path class="cls-1" d="M169.89,61.28,61.28,169.89a2.27,2.27,0,1,1-3.21-3.21L166.67,58.06a2.27,2.27,0,0,1,3.21,3.21Z"/><path class="cls-2" d="M154.57,57.43"/><polygon class="cls-1" points="155.85 58.72 169.23 72.09 172.08 55.87 155.85 58.72"/></g></g></svg>