<?xml version="1.0" encoding="utf-8"?>
<!-- Generator: Adobe Illustrator 23.0.0, SVG Export Plug-In . SVG Version: 6.00 Build 0)  -->
<svg version="1.1" id="Layer_1" xmlns="http://www.w3.org/2000/svg" xmlns:xlink="http://www.w3.org/1999/xlink" x="0px" y="0px"
	 viewBox="0 0 100 30" style="enable-background:new 0 0 100 30;" xml:space="preserve">
<style type="text/css">
	.st0{fill:#42BCED;}
	.st1{fill:#FFFFFF;}
	.st2{font-family:'Roboto-Regular';}
	.st3{font-size:12px;}
	.st4{display:none;}
	.st5{display:inline;fill:#42BCED;}
	.st6{display:inline;}
	.st7{display:inline;fill:#FFFFFF;}
</style>
<g>
	<path class="st0" d="M93.24,28.52H6.76c-2.21,0-4-1.79-4-4V5.48c0-2.21,1.79-4,4-4h86.48c2.21,0,4,1.79,4,4v19.03
		C97.24,26.72,95.45,28.52,93.24,28.52z"/>
	<g>
		<polygon class="st1" points="16.66,12.89 21.76,12.89 21.76,17.12 16.66,17.12 16.66,21.08 10.03,15 16.66,8.92 		"/>
	</g>
	<text transform="matrix(1 0 0 1 27.3367 18.5066)" class="st1 st2 st3">Trang trước</text>
</g>
<g class="st4">
	<path class="st5" d="M93.24,28.52H6.76c-2.21,0-4-1.79-4-4V5.48c0-2.21,1.79-4,4-4h86.48c2.21,0,4,1.79,4,4v19.03
		C97.24,26.72,95.45,28.52,93.24,28.52z"/>
	<g class="st6">
		<polygon class="st1" points="15.13,12.89 10.03,12.89 10.03,17.12 15.13,17.12 15.13,21.08 21.76,15 15.13,8.92 		"/>
	</g>
	<text transform="matrix(1 0 0 1 27.3371 18.5068)" class="st7 st2 st3">Trang tiếp</text>
</g>
<g class="st4">
	<path class="st5" d="M93.24,28.52H6.76c-2.21,0-4-1.79-4-4V5.48c0-2.21,1.79-4,4-4h86.48c2.21,0,4,1.79,4,4v19.03
		C97.24,26.72,95.45,28.52,93.24,28.52z"/>
	<path class="st7" d="M15.94,19.03c-2.2,0-3.99-1.79-3.99-3.99c0-2.2,1.79-3.99,3.99-3.99c0.94,0,1.81,0.33,2.49,0.88l-1.98,1.71
		l5.21,0.77l-0.01-5.26l-1.83,1.58c-1.03-0.93-2.39-1.49-3.88-1.49c-3.2,0-5.8,2.6-5.8,5.8s2.6,5.8,5.8,5.8
		c2.51,0,4.65-1.6,5.46-3.83l-1.85-0.27C18.9,18.09,17.53,19.03,15.94,19.03z"/>
	<text transform="matrix(1 0 0 1 27.3368 18.5067)" class="st7 st2 st3">Về mục lục</text>
</g>
</svg>
