<?xml version="1.0" encoding="utf-8"?>
<!-- Generator: Adobe Illustrator 19.0.0, SVG Export Plug-In . SVG Version: 6.00 Build 0)  -->
<svg version="1.1" id="Layer_1" xmlns="http://www.w3.org/2000/svg" xmlns:xlink="http://www.w3.org/1999/xlink" x="0px" y="0px"
	 viewBox="0 0 857.5 94.5" style="enable-background:new 0 0 857.5 94.5;" xml:space="preserve">
<style type="text/css">
	.st0{fill:#FFFFFF;}
</style>
<g>
	<path class="st0" d="M786.9,45.9c3.7-3.6,7.4-6.4,11.5-8.3c7.5-3.7,14.9-2.2,19.7,3.8c1,1.2,1.6,2.6,2.2,4.4
		c3.8-5.1,8.7-7.9,14.5-9.6c11.4-3.1,18.7,5.3,18.9,14.1c0.3,11.6,0.1,23.4,0.1,35.1c0,1.3-0.6,1.6-1.7,1.6c-2.2-0.1-4.4-0.1-6.5,0
		c-1.7,0.1-2-0.6-1.9-2.1c0-10.5,0-21.1,0-31.6c0-5.7-3.4-10.2-8.2-10.8c-3.2-0.3-6.4,0.7-9.2,2.2c-1.1,0.4-2,1.2-3,1.9
		c-2.2,1.5-3.1,3.4-3.1,6.2c0.2,10.7,0.1,21.5,0.1,32.2c0,1.7-0.3,2.2-2,2.1c-1.9-0.2-3.9-0.2-5.8,0c-1.7,0.1-2.1-0.4-2.1-2.1
		c0.1-10.5,0.1-21.1,0-31.8c0-5.5-3.4-10-8.2-10.7c-2.9-0.3-5.5,0.7-8.1,1.8c-0.9,0.3-1.8,0.9-2.7,1.5c-3.2,1.9-4.9,4.2-4.8,8.4
		c0.4,10.3,0.1,20.6,0.2,30.9c0,1.8-0.6,2.2-2.1,2.1c-2.1-0.1-4.2-0.1-6.3,0c-1.1,0-1.7-0.2-1.6-1.5c0-15.9,0-31.6,0-47.4
		c0-1.1,0.3-1.5,1.3-1.5c2.5,0.1,4.8,0.1,7.2,0c1.1,0,1.5,0.4,1.3,1.5C786.9,40.5,786.9,43,786.9,45.9L786.9,45.9z"/>
	<path class="st0" d="M139.7,54.2c0-10.2,0-20.4,0-30.4c0-1.7,0.2-2.3,2-2.2c2.3,0.2,4.6,0.2,6.9,0c1.9-0.1,2.1,0.7,2.1,2.3
		c0,8.4,0,16.9,0,25.3c-0.1,1.9,0.6,2.3,2.3,2.2c9.4,0,18.8,0,28.2,0c1.7,0.1,2.2-0.3,2.2-2.1c-0.1-8.5,0-17-0.1-25.5
		c0-1.7,0.3-2.3,2.1-2.2c2.5,0.2,4.9,0.1,7.4,0.1c1.2-0.1,1.7,0.2,1.7,1.6c0,20.7,0,41.5,0,62.2c0,1.1-0.3,1.6-1.6,1.6
		c-2.6-0.1-5.3-0.1-7.8,0c-1.7,0.1-1.8-0.7-1.7-2c0-8.9-0.1-17.9,0-26.8c0-1.9-0.3-2.7-2.5-2.6c-9.4,0.1-18.7,0.1-28,0
		c-1.9,0-2.5,0.3-2.5,2.3c0.1,8.8,0,17.7,0.1,26.5c0.1,2.2-0.6,2.7-2.6,2.6c-2.2-0.2-4.5-0.1-6.7,0c-1.6,0.1-1.8-0.6-1.8-1.9
		C139.7,74.7,139.7,64.4,139.7,54.2L139.7,54.2z"/>
	<path class="st0" d="M558.4,45.5c1.8-1.6,3.1-2.9,4.6-4.1c3.8-3.2,8.3-5.3,13.3-5.9c5.7-0.7,11.2,2.9,13.3,8.9
		c0.8,2.3,1.1,4.7,1.1,7c0,11.1-0.1,22.3,0,33.3c0,1.7-0.4,2.2-2.1,2.1c-1.9-0.2-3.9-0.2-5.8,0c-1.9,0.1-2.1-0.7-2.1-2.2
		c0.1-11,0-21.8,0-32.7c0-2.2-0.3-4.4-1.6-6.2c-2-3.2-5.4-4.4-9.6-3.1c-3.9,1.1-7.3,3.5-10.3,6.2c-0.8,0.8-0.8,1.7-0.8,2.7
		c0,11,0,22,0.1,33c0,1.9-0.6,2.5-2.3,2.3c-2-0.2-3.9-0.1-5.8,0c-1.6,0.1-1.9-0.6-1.9-1.9c0.1-8.5,0.1-17,0.1-25.5
		c0-14.6,0-29.2-0.1-43.8c0-1.6,0.6-2.3,2-2.9c1.6-0.4,3.1-1.3,4.7-1.8c2.6-0.9,3.2-0.3,3.2,2.2c0,10,0,19.8,0,29.7
		C558.4,43.6,558.4,44.4,558.4,45.5L558.4,45.5z"/>
	<path class="st0" d="M507.1,45.3c2-1.7,3.7-3.4,5.6-4.8c4.5-3.4,9.5-5.6,15.3-4.9c5.8,0.8,10.5,6.2,11.1,12.4
		c0.7,6.9,0.2,14,0.3,20.9c0,5.3-0.1,10.5,0,15.7c0.1,2-0.6,2.5-2.3,2.3c-1.9-0.2-3.7-0.2-5.6,0s-2.2-0.6-2.2-2.3
		c0-10.8,0-21.7,0-32.4c0-2.6-0.4-4.9-2-6.9c-2.3-2.9-5.5-3.5-8.8-2.6c-4,1.1-7.4,3.5-10.5,6.3c-0.9,0.7-0.8,1.7-0.8,2.6
		c0,11-0.1,21.9,0,32.9c0.1,2.2-0.6,2.7-2.6,2.6c-1.8-0.2-3.6-0.2-5.4,0c-1.7,0.1-2.1-0.4-2.1-2.1c0.1-10.7,0-21.5,0-32.2
		c0-4.7,0.1-9.4,0-14.1c0-1.5,0.4-2,1.9-1.9c2.1,0.1,4.4,0.1,6.5,0c1.2,0,1.8,0.4,1.7,1.7C507,40.5,507.1,42.9,507.1,45.3
		L507.1,45.3z"/>
	<path class="st0" d="M674.9,57.1c0.3,7.6,2.1,14.5,8.2,19.7c6.8,5.8,16.8,4.5,21.9-2.9c1.3-1.8,2.2-3.7,3.1-5.7
		c0.3-0.7,0.4-1.9,1.8-1.1c0.9,0.4,2,0.4,1.5,2.2c-2.9,8.9-7.8,16-17.6,18c-13.3,2.9-25.8-5.6-28.5-19.1
		c-2.3-12.4,3.9-25.3,15.4-30.3c8.7-3.9,17.4-3.2,25.6,2.1c1.7,1.1,2.9,2.7,3.6,4.5c0.8,2.3,0.9,4.6-1,6.5c-1.9,1.8-5.1,2.7-7.4,1.7
		c-2.5-1-3.6-2.9-3.7-5.6c-0.1-6.5-4.2-7.9-9.1-7.7c-8.1,0.3-13.1,7.3-13.8,14.5C675,54.9,674.9,56.1,674.9,57.1L674.9,57.1z"/>
	<path class="st0" d="M285.9,87.8c-12.3,0.4-23.6-10.2-23.8-24.4c-0.1-13.3,8.4-24.6,20.7-27.3c6.6-1.5,12.9-0.7,18.9,2.5
		c2.9,1.6,5.1,3.9,5.9,7.4c0.7,3.1-1.7,6.4-5.1,6.9c-3.7,0.6-6.7-1.5-7.2-4.7c-0.1-0.1-0.1-0.2-0.1-0.4c0.2-7.9-5.6-9.5-11.9-8.1
		c-5,1.1-8.4,4.6-9.8,9.4c-2.9,9.4-1.5,18.2,4.9,25.7c6.9,8.2,18.5,7.2,24.4-1.8c1.1-1.7,1.9-3.5,2.7-5.4c0.4-0.8,0.8-1.2,1.7-0.7
		c0.7,0.4,2.1,0.2,1.6,1.8c-2.7,9.1-8.3,17.1-19.2,18.9C288.4,87.8,287.2,87.8,285.9,87.8L285.9,87.8z"/>
	<path class="st0" d="M63.4,88.9c6.4-5.8,14-8.4,22.1-9.7c3.2-0.4,6.4-0.1,9.6-0.7c5.9-0.9,9.5-5,9.5-11.1c0-15.9,0-31.9,0.1-47.9
		c0-1-1.2-2.8,1-3.2c2.5-0.4,4.9,0.7,5.6,2.6c0.3,0.9,0.4,1.9,0.4,2.9c0,20.9,0,41.9,0,63c0,4.4-2.1,6-6.3,5
		c-10.2-2.2-20.4-3-30.6-2.5C71.1,87.6,67.3,88.3,63.4,88.9L63.4,88.9z"/>
	<path class="st0" d="M51.2,88.9c-8.4-1.9-16.8-2-25.3-1.6c-5.6,0.3-11.2,1.2-16.6,2.5c-3.8,0.9-6.4-0.3-6.4-5
		c0.1-21.1,0.1-42.2,0.1-63.3c0-3.8,1.5-5.1,5.3-5.1c1.6-0.1,1.9,0.6,1.8,1.9c0,7.9,0,16,0,23.9c0,8.2,0.2,16.4-0.1,24.6
		c-0.2,6.9,4.6,12.1,12.2,12c8.3,0,16.1,1.8,23.3,5.8C47.6,85.8,49.5,87.1,51.2,88.9L51.2,88.9z"/>
	<path class="st0" d="M429,61.2c0,7.8,0,15.7,0.1,23.5c0,1.9-0.6,2.3-2.3,2.2s-3.6-0.2-5.4,0c-1.8,0.1-2.3-0.4-2.3-2.3
		c0.1-11.7,0.1-23.5,0.1-35.2c0-3.1,0.1-6.2,0-9.2c-0.1-1.5,0.3-2.2,1.7-2.6c2-0.7,3.8-1.8,5.9-2.1c1.6-0.2,2.3,0.1,2.3,2
		C428.9,45.4,429,53.4,429,61.2L429,61.2z"/>
	<path class="st0" d="M423.9,20.7c-3.2,0-5.7-2-5.7-4.9c0-2.8,2.5-5,5.7-5c3.1,0,5.6,2.1,5.6,5S427.3,20.7,423.9,20.7L423.9,20.7z"
		/>
	<path class="st0" d="M647.7,83.1c0-3,2.2-5.1,5.4-5.1c2.8,0,5.4,2.5,5.4,5.1c-0.1,3-2.5,5.3-5.6,5.1
		C649.7,88.3,647.7,86.1,647.7,83.1L647.7,83.1z"/>
	<path class="st0" d="M57.2,19.5C66.3,6.1,79.5,2.3,94.4,2.3c2.5,0,3.7,1.6,3.7,4.4c0,16.8,0,33.5,0,50.3c0,3.2,0,6.5,0,9.8
		c0,4.4-1,5.4-5.4,5.5c-7.9,0.2-15.8,1.6-23.1,4.9c-4,1.9-7.8,4.2-11.1,7.5c-0.7,0.7-1.1,1-2.1,0.1C46.7,75.7,34.8,72.7,22,72.3
		c-4.2-0.2-5.5-1.2-5.5-5.5c0-19.8,0-39.6,0-59.5c0-3.8,1.2-5,5-5c10.5,0.1,20.2,2.3,28.6,9.1C53,13.6,55.2,16.2,57.2,19.5
		L57.2,19.5z M76,22.2c0.1-1.5-0.2-2-1.8-1.9c-1.9,0.1-3.9,0.1-5.8,0c-1.6-0.1-1.9,0.4-1.8,1.9c0,4.6-0.1,9.3,0,13.9
		c0,1.5-0.2,2.1-1.9,2c-4.7-0.1-9.4,0-14.1,0c-1.5,0.1-1.9-0.3-1.9-1.8c0.1-4.7,0-9.4,0.1-14.1c0-1.6-0.4-2-1.9-1.9
		c-1.9,0.1-3.8,0.1-5.6,0c-1.7-0.1-2,0.6-2,2c0.1,7.6,0.1,15.2,0.1,22.8c0,5.9,0,11.7-0.1,17.7c0,1.3,0.4,1.8,1.8,1.8
		c2-0.1,3.9-0.2,5.8,0c1.6,0,1.9-0.6,1.9-2c-0.1-4.8,0-9.7-0.1-14.6c0-1.5,0.4-1.8,1.8-1.8c4.7,0.1,9.5,0.1,14.3,0
		c1.5,0,1.8,0.6,1.8,1.9c-0.1,4.8,0,9.7-0.1,14.5c0,1.7,0.6,2,2.1,2c1.8-0.2,3.7-0.2,5.6,0c1.5,0,1.9-0.4,1.8-1.9
		c0-6.7,0-13.4,0-20.1C76,35.7,76,29,76,22.2L76,22.2z"/>
	<path class="st0" d="M326.1,45.5c2-2.6,3.8-4.4,5.9-5.9c11.6-8.5,24.5-2.8,29.2,7.8c6.8,15.1-2,37.5-22.5,40.1
		c-7.4,1-14.6-0.2-21.1-4.5c-1.1-0.8-1.7-1.6-1.6-2.9c0-21.6,0-43.2,0-64.9c0-1.2,0.2-2,1.6-2.3c2.2-0.7,4.1-2,6.5-2.2
		c1.6-0.1,2.1,0.3,2,1.9c0,10.1,0,20,0,30C326.1,43.4,326.1,44.1,326.1,45.5L326.1,45.5z M326.1,77c0,1.1,0.2,1.9,1,2.6
		c6.8,6.6,16.9,5.5,21.8-2.6c4-6.5,5-13.5,3.5-20.9c-1.2-5.9-4.7-10.5-10.7-12.3c-5.5-1.6-10.2,0.4-14.3,4.1
		c-0.9,0.9-1.2,1.8-1.2,2.9c0,4.4,0,8.7,0,13C326.1,68.2,326.1,72.6,326.1,77L326.1,77z"/>
	<path class="st0" d="M230.5,87.8c-13.3,0.3-26.4-9.7-26.4-25.5c-0.1-15.2,11.5-26.8,26.7-26.8c15.1,0,26.5,10.7,26.5,24.9
		C257.3,76.2,244.9,88.4,230.5,87.8L230.5,87.8z M242.9,48.6c-2.9-6-7.7-9.4-14.4-9.4c-4.9,0.1-8.1,3.2-10.3,7.3
		c-3.5,5.9-3.5,12.4-2.3,18.9c1,5.6,2.9,11,7.3,15c6.3,5.9,14.6,5,19.5-2.2c2.7-4,3.6-8.6,3.5-14.4
		C245.9,59.2,245.3,53.7,242.9,48.6L242.9,48.6z"/>
	<path class="st0" d="M463.3,87.8c-15.3,0-26.7-11-26.7-25.6c0.1-15.1,11.7-26.7,26.8-26.7c15.1,0,26.4,10.7,26.5,24.9
		C489.9,76.4,477.4,88.4,463.3,87.8L463.3,87.8z M475.2,47.8c-3-5.7-7.8-8.7-14.2-8.5c-5.1,0-8.2,3.5-10.4,7.7
		c-4.8,8.9-2.8,24.7,4,32.3c6.6,7.3,16,6.4,21-2c2.5-4,3.1-8.3,3-12.9C478.5,58.7,477.8,53,475.2,47.8L475.2,47.8z"/>
	<path class="st0" d="M743.3,87.8c-14.2,0.4-26.7-10.4-26.7-25.5c0-15.2,11.6-26.8,26.7-26.8c15.1,0,26.5,10.7,26.5,24.8
		C769.8,76.5,757.2,88.3,743.3,87.8L743.3,87.8z M754.8,47.4c-2.9-5.5-7.7-8.3-13.8-8.3c-4.6,0-7.6,2.9-10.1,6.6
		c-6,9.3-2.9,27.1,3.9,34.1c6.5,6.5,15.7,5.6,20.5-2.2c2.5-3.9,3.4-8.4,3.2-14.3C758.6,57.7,757.3,51.8,754.8,47.4L754.8,47.4z"/>
	<path class="st0" d="M397.5,80c-1.5,1.1-2.7,2-3.8,3c-4.8,3.9-10.3,5.6-16.4,4.6c-4.6-0.8-7.8-3.5-9.3-8.1
		c-1.5-5.1-0.4-9.7,3.1-13.6c3.5-3.8,8.1-5.8,12.7-7.6c3.9-1.6,7.9-2.6,12-3.6c1.2-0.3,1.8-0.8,1.7-2c0-3,0-6-1.2-8.8
		c-2.1-5.1-10.6-6.9-14.6-3.1c-1,1-1.7,2.1-1.9,3.5c-0.1,1.6-0.2,3-0.4,4.5c-0.2,2.8-1.9,4.5-4.6,4.5c-2.5,0.1-4.7-1.6-5.1-4
		c-0.6-2.7,0-5.1,2-7.3c3.1-3.4,7.2-4.8,11.5-5.7c5.7-1.1,11.3-1,16.8,0.9c4.8,1.8,7.6,5.5,7.6,10.7c0.1,12.5,0,25.1,0.1,37.6
		c0,1.2-0.4,1.6-1.7,1.6c-2.2-0.1-4.5-0.1-6.7,0c-1.2,0-1.8-0.3-1.7-1.7C397.7,83.7,397.5,82,397.5,80L397.5,80z M397.5,59.4
		c0.1-1.5-0.3-1.9-1.8-1.3c-4,1.5-7.9,3.1-11.6,5.5c-2.2,1.5-4.4,3.2-5.7,5.6c-1.8,3.2-1.1,6.4,0.9,9.2c2,2.7,4.6,4,8.2,3.4
		c2.6-0.6,4.8-1.9,7-3.2c2.2-1.2,3.5-2.9,3.1-5.7c-0.3-1.9-0.1-3.8-0.1-5.8C397.5,64.4,397.5,61.9,397.5,59.4L397.5,59.4z"/>
	<path class="st0" d="M627.1,79.9c-1.5,1.2-2.6,2-3.6,2.9c-4.6,3.8-9.8,5.5-15.8,5c-8.6-0.8-13.5-10.5-9.4-18.6
		c1.7-3.4,4.5-5.7,7.7-7.6c5.9-3.5,12.5-5.1,19.1-6.9c1.5-0.3,2-0.9,1.9-2.3c-0.1-2.8-0.1-5.5-1.1-8.2c-2.2-5.4-10.3-7.3-14.8-3.6
		c-1.1,1-1.8,2.2-1.9,3.7c-0.2,1.5-0.3,2.9-0.4,4.5c-0.3,2.8-2.1,4.4-4.7,4.4c-2.7,0.1-4.9-1.9-5.3-4.5c-0.3-2.8,0.4-5.1,2.5-7.2
		c3.2-3.2,7.4-4.6,11.7-5.5c5-1,10.2-0.8,15.2,0.7c5.7,1.7,8.6,5.6,8.6,11.5c0.1,12.2,0,24.4,0.1,36.7c0,1.7-0.6,2.1-2.1,2
		c-2-0.1-4-0.1-6,0c-1.6,0.1-1.9-0.6-1.8-1.9C627.2,83.5,627.1,81.9,627.1,79.9L627.1,79.9z M627.1,59.2c0-1.3-0.3-1.7-1.7-1.1
		c-4.4,1.6-8.5,3.4-12.4,5.9c-1.8,1.2-3.4,2.7-4.7,4.5c-1.9,2.7-1.9,6.3,0.1,9.4c2,3,5,4.4,8.4,3.8c2.8-0.4,5.1-2,7.5-3.4
		c2.1-1.3,3.1-2.9,2.8-5.5c-0.2-1.9,0-3.8,0-5.8C627.1,64.4,627.1,61.9,627.1,59.2L627.1,59.2z"/>
</g>
</svg>
