<?xml version="1.0" encoding="utf-8"?>
<!-- Generator: Adobe Illustrator 19.0.0, SVG Export Plug-In . SVG Version: 6.00 Build 0)  -->
<svg version="1.1" id="Layer_1" xmlns="http://www.w3.org/2000/svg" xmlns:xlink="http://www.w3.org/1999/xlink" x="0px" y="0px"
	 viewBox="0 0 347.5 281" style="enable-background:new 0 0 347.5 281;" xml:space="preserve">
<style type="text/css">
	.st0{fill:#42BCED;}
</style>
<g>
	<path class="st0" d="M192.5,274.3c20-18.3,43.9-26.3,69.5-30.5c10.2-1.4,20-0.4,30.2-2.1c18.6-2.8,29.8-15.8,29.8-34.8
		c0-49.8,0-100,0.4-150.2c0-3.2-3.9-8.8,3.2-10.2c7.7-1.4,15.4,2.1,17.6,8.1c1.1,2.8,1.4,6,1.4,9.1c0,65.6,0,131.6,0,197.6
		c0,13.7-6.7,19-19.7,15.8c-31.9-7-63.9-9.5-96.2-7.7C216.8,270.1,204.8,272.2,192.5,274.3L192.5,274.3z"/>
	<path class="st0" d="M154.3,274.3c-26.3-6-52.7-6.3-79.3-4.9c-17.6,1.1-35.1,3.9-52,7.7c-11.9,2.8-20-1.1-20-15.8
		C3.4,195,3.4,129,3.4,62.6c0-11.9,4.6-16.1,16.5-16.1c4.9-0.4,6,1.8,5.6,6c0,24.9,0,50.2,0,75.1c0,25.6,0.7,51.6-0.4,77.2
		c-0.7,21.8,14.4,37.9,38.3,37.6c26,0,50.5,5.6,73,18.3C143.1,264.5,149,268.7,154.3,274.3L154.3,274.3z"/>
	<path class="st0" d="M173.2,56.3c28.4-42.1,69.9-54.1,116.5-54.1c7.7,0,11.6,4.9,11.6,13.7c0,52.7,0,105.3,0,158
		c0,10.2,0,20.4,0,30.9c0,13.7-3.2,16.8-16.8,17.2c-24.9,0.7-49.5,4.9-72.7,15.4c-12.6,6-24.6,13.3-34.8,23.5
		c-2.1,2.1-3.5,3.2-6.7,0.4c-30.2-28.4-67.7-37.9-107.8-39.3c-13.3-0.7-17.2-3.9-17.2-17.2c0-62.1,0-124.3,0-186.7
		c0-11.9,3.9-15.8,15.8-15.8c33,0.4,63.5,7.4,89.9,28.4C159.9,37.7,166.9,46.1,173.2,56.3L173.2,56.3z M232.2,64.7
		c0.4-4.6-0.7-6.3-5.6-6c-6,0.4-12.3,0.4-18.3,0c-4.9-0.4-6,1.4-5.6,6c0,14.4-0.4,29.1,0,43.5c0,4.6-0.7,6.7-6,6.3
		c-14.7-0.4-29.5,0-44.2,0c-4.6,0.4-6-1.1-6-5.6c0.4-14.7,0-29.5,0.4-44.2c0-4.9-1.4-6.3-6-6c-6,0.4-11.9,0.4-17.6,0
		c-5.3-0.4-6.3,1.8-6.3,6.3c0.4,23.9,0.4,47.7,0.4,71.6c0,18.6,0,36.9-0.4,55.5c0,4.2,1.4,5.6,5.6,5.6c6.3-0.4,12.3-0.7,18.3,0
		c4.9,0,6-1.8,6-6.3c-0.4-15.1,0-30.5-0.4-46c0-4.6,1.4-5.6,5.6-5.6c14.7,0.4,29.8,0.4,44.9,0c4.6,0,5.6,1.8,5.6,6
		c-0.4,15.1,0,30.5-0.4,45.6c0,5.3,1.8,6.3,6.7,6.3c5.6-0.7,11.6-0.7,17.6,0c4.6,0,6-1.4,5.6-6c0-21.1,0-42.1,0-63.2
		C232.2,107.2,232.2,86.2,232.2,64.7L232.2,64.7z"/>
</g>
</svg>
